<svg width="45" height="45" viewBox="0 0 45 45" fill="none" xmlns="http://www.w3.org/2000/svg">
<path d="M18.9353 26.3028H12.7029L11.0937 31.4526C11.0742 31.6086 10.9766 31.6867 10.8011 31.6867H7.87508C7.68001 31.6867 7.61174 31.5891 7.67026 31.3941L13.3174 14.1599C13.4539 13.7892 13.532 13.2528 13.5515 12.5506C13.5515 12.4335 13.61 12.375 13.727 12.375H17.8234C17.9405 12.375 18.0087 12.4238 18.0282 12.5213L24.3484 31.4233C24.4069 31.5989 24.3581 31.6867 24.2021 31.6867H20.925C20.7884 31.6867 20.6909 31.6281 20.6324 31.5111L18.9353 26.3028ZM13.4052 23.5231H18.2623C18.1453 23.1135 17.9014 22.3137 17.5308 21.1238C17.1602 19.9339 16.8188 18.822 16.5067 17.7881C16.1946 16.7543 15.9605 15.935 15.8045 15.3303H15.7752C15.5607 16.3446 14.7706 19.0756 13.4052 23.5231Z" fill="white"/>
<path d="M34.0144 25.1909H28.6598C28.6793 26.4394 29.0305 27.4244 29.7132 28.1462C30.3959 28.8679 31.42 29.2288 32.7855 29.2288C34.0339 29.2288 35.1458 29.0142 36.1211 28.5851C36.2381 28.5071 36.2966 28.5461 36.2966 28.7021V30.8381C36.2966 30.9747 36.2381 31.0917 36.1211 31.1892C35.0092 31.6964 33.6438 31.95 32.0247 31.95C29.6254 31.95 27.8601 31.2673 26.7287 29.9018C25.6168 28.5168 25.0609 26.7905 25.0609 24.7228C25.0609 22.577 25.6461 20.7824 26.8165 19.3389C27.9869 17.8954 29.5864 17.1737 31.6151 17.1737C33.5462 17.1737 34.98 17.7686 35.9163 18.9585C36.8721 20.1484 37.35 21.5432 37.35 23.1427C37.35 23.9425 37.311 24.5082 37.233 24.8398C37.2135 24.9763 37.1354 25.0544 36.9989 25.0739C36.4917 25.1519 35.4969 25.1909 34.0144 25.1909ZM28.6598 22.9379H32.5221C33.3609 22.9379 33.8388 22.9184 33.9559 22.8794C33.9754 22.8013 33.9851 22.6648 33.9851 22.4697C33.9851 21.7285 33.7901 21.0652 33.3999 20.48C33.0098 19.8948 32.3758 19.6022 31.498 19.6022C30.6398 19.6022 29.9765 19.9144 29.5084 20.5386C29.0402 21.1628 28.7574 21.9626 28.6598 22.9379Z" fill="white"/>
</svg>
