<svg width="45" height="45" viewBox="0 0 45 45" fill="none" xmlns="http://www.w3.org/2000/svg">
<path fill-rule="evenodd" clip-rule="evenodd" d="M24.5869 36.6943C25.2751 33.6917 25.7536 29.4876 25.8691 24.7344L26.9235 24.7601C26.8069 29.559 26.3237 33.8378 25.615 36.9299C25.2616 38.4717 24.8459 39.7468 24.3762 40.6488C24.1417 41.0991 23.8805 41.4827 23.5855 41.7599C23.2885 42.0391 22.9234 42.2402 22.5 42.2402C22.014 42.2402 21.6071 41.9768 21.2859 41.6302C20.9636 41.2823 20.6772 40.7993 20.4199 40.2267C19.9037 39.078 19.4538 37.4531 19.0886 35.4968L20.1253 35.3032C20.4841 37.2245 20.9153 38.756 21.3819 39.7944C21.616 40.3153 21.8465 40.6834 22.0596 40.9133C22.2737 41.1445 22.4206 41.1855 22.5 41.1855C22.5698 41.1855 22.6892 41.1549 22.8632 40.9914C23.0392 40.8259 23.2356 40.5557 23.4408 40.1617C23.8503 39.3752 24.2419 38.1999 24.5869 36.6943Z" fill="url(#paint0_linear_7_59)"/>
<path fill-rule="evenodd" clip-rule="evenodd" d="M20.7432 7.01363C20.1121 9.22078 19.6109 12.3638 19.3359 16.0545L18.2841 15.9761C18.562 12.2466 19.0709 9.02558 19.7292 6.72368C20.0572 5.57666 20.4305 4.62788 20.8488 3.95425C21.2466 3.31356 21.7884 2.75978 22.4999 2.75978C22.9234 2.75978 23.2884 2.96085 23.5854 3.24008C23.8804 3.51736 24.1417 3.90091 24.3761 4.35118C24.8458 5.25322 25.2615 6.52825 25.6149 8.07007C26.3236 11.1622 26.8068 15.441 26.9234 20.2399L25.8691 20.2656C25.7535 15.5124 25.275 11.3083 24.5868 8.30571C24.2418 6.80014 23.8502 5.62478 23.4406 4.83829C23.2355 4.44428 23.0391 4.17404 22.8631 4.00858C22.6891 3.84507 22.5697 3.81447 22.4999 3.81447C22.3767 3.81447 22.109 3.92419 21.7448 4.51063C21.4011 5.06413 21.06 5.90612 20.7432 7.01363Z" fill="url(#paint1_linear_7_59)"/>
<path fill-rule="evenodd" clip-rule="evenodd" d="M19.336 16.0545C19.1861 18.0668 19.1039 20.2369 19.1039 22.5C19.1039 27.4406 19.4959 31.9323 20.1253 35.3032L19.0885 35.4968C18.4446 32.048 18.0492 27.4895 18.0492 22.5C18.0492 20.2118 18.1323 18.0155 18.2842 15.9761L19.336 16.0545Z" fill="url(#paint2_linear_7_59)"/>
<path fill-rule="evenodd" clip-rule="evenodd" d="M18.8438 24.2916C15.4225 22.2029 12.4667 20.0851 10.2715 18.2135L9.5872 19.0161C11.8339 20.9315 14.837 23.0812 18.2943 25.1917L18.8438 24.2916Z" fill="url(#paint3_linear_7_59)"/>
<path fill-rule="evenodd" clip-rule="evenodd" d="M33.7278 31.4046C30.7836 30.4995 26.9038 28.812 22.73 26.5357L22.225 27.4616C26.4391 29.7599 30.3858 31.4805 33.4178 32.4127C34.9296 32.8776 36.2416 33.1551 37.2575 33.1993C37.7647 33.2213 38.2274 33.1869 38.615 33.07C39.0053 32.9523 39.3619 32.7368 39.5737 32.3701C39.9308 31.7515 39.7192 31.0019 39.36 30.334C38.9821 29.6314 38.3415 28.8293 37.505 27.9668C35.8265 26.236 33.2711 24.173 30.1575 22.0577L29.5648 22.9301C32.6461 25.0234 35.1378 27.0408 36.7479 28.7011C37.5558 29.5342 38.1201 30.2553 38.4311 30.8336C38.7608 31.4466 38.7222 31.7355 38.6603 31.8428C38.6254 31.9032 38.5392 31.9913 38.3106 32.0602C38.0793 32.13 37.7471 32.1649 37.3034 32.1456C36.4176 32.107 35.204 31.8585 33.7278 31.4046Z" fill="url(#paint4_linear_7_59)"/>
<path fill-rule="evenodd" clip-rule="evenodd" d="M24.1762 19.5589C26.1058 20.6729 27.9176 21.8111 29.5647 22.9301L30.1574 22.0577C28.4882 20.9237 26.6546 19.772 24.7035 18.6455C20.087 15.9801 15.6694 13.9508 12.2582 12.8177C10.5568 12.2525 9.07945 11.9013 7.94136 11.8153C7.37372 11.7724 6.85995 11.7928 6.43355 11.904C6.00636 12.0155 5.61081 12.2345 5.38255 12.6299C5.13765 13.0541 5.16454 13.5423 5.30714 13.997C5.45032 14.4537 5.73021 14.9477 6.10352 15.4619C6.85257 16.4936 8.05324 17.7084 9.58715 19.0161L10.2714 18.2135C8.76445 16.9288 7.63524 15.7764 6.95698 14.8423C6.61672 14.3736 6.40868 13.985 6.31349 13.6815C6.21774 13.3761 6.25597 13.2265 6.29591 13.1572C6.33331 13.0925 6.43113 12.9947 6.69977 12.9246C6.9692 12.8543 7.35381 12.8286 7.86186 12.867C8.87515 12.9435 10.2586 13.2648 11.9257 13.8186C15.2518 14.9235 19.6033 16.9187 24.1762 19.5589Z" fill="url(#paint5_linear_7_59)"/>
<path fill-rule="evenodd" clip-rule="evenodd" d="M22.8727 18.4104C26.4154 16.4841 29.7441 14.983 32.4641 14.0273L32.1144 13.0322C29.3296 14.0107 25.9487 15.5373 22.3689 17.4839L22.8727 18.4104Z" fill="url(#paint6_linear_7_59)"/>
<path fill-rule="evenodd" clip-rule="evenodd" d="M9.16154 27.8124C11.4013 25.7258 14.78 23.2213 18.8147 20.753L18.2643 19.8533C14.1907 22.3455 10.7497 24.8914 8.44259 27.0407C7.29223 28.1124 6.40247 29.105 5.8605 29.9589C5.58992 30.3852 5.39006 30.8015 5.29852 31.1942C5.20633 31.5897 5.21542 32.0048 5.42636 32.3701C5.78302 32.9879 6.53637 33.1796 7.2928 33.203C8.08843 33.2275 9.10098 33.0748 10.2633 32.783C12.5959 32.1974 15.6527 31.0202 19.0342 29.3867L18.5755 28.437C15.2292 30.0535 12.2436 31.1984 10.0065 31.76C8.88398 32.0418 7.9798 32.169 7.32532 32.1488C6.63174 32.1274 6.40159 31.9499 6.33976 31.8428C6.30496 31.7825 6.27187 31.6644 6.3257 31.4336C6.38015 31.2 6.51449 30.8966 6.75096 30.5241C7.22298 29.7804 8.03843 28.8587 9.16154 27.8124Z" fill="url(#paint7_linear_7_59)"/>
<path fill-rule="evenodd" clip-rule="evenodd" d="M24.2199 25.4411C22.2793 26.5616 20.3773 27.5666 18.5755 28.437L19.0343 29.3866C20.8602 28.5046 22.7851 27.4874 24.7473 26.3545C29.3638 23.6892 33.33 20.8781 36.017 18.4905C37.3572 17.2996 38.3999 16.1958 39.0435 15.2532C39.3645 14.7831 39.6037 14.3279 39.7205 13.903C39.8376 13.4773 39.8457 13.0253 39.6174 12.6299C39.3753 12.2106 38.9461 11.9899 38.4874 11.8847C38.0273 11.7791 37.4688 11.7717 36.8479 11.8338C35.6023 11.9584 33.98 12.3766 32.1144 13.0322L32.464 14.0272C34.2961 13.3835 35.828 12.9958 36.9529 12.8833C37.5173 12.8268 37.9481 12.843 38.2515 12.9126C38.5563 12.9826 38.6645 13.0888 38.704 13.1572C38.7414 13.222 38.7773 13.3556 38.7036 13.6233C38.6297 13.8918 38.4598 14.2377 38.1724 14.6585C37.5995 15.4977 36.6296 16.5352 35.3164 17.7021C32.6965 20.0301 28.7928 22.801 24.2199 25.4411Z" fill="url(#paint8_linear_7_59)"/>
<path d="M19.7743 36.7315C20.5352 36.7315 21.152 36.1147 21.152 35.3538C21.152 34.5929 20.5352 33.9761 19.7743 33.9761C19.0134 33.9761 18.3966 34.5929 18.3966 35.3538C18.3966 36.1147 19.0134 36.7315 19.7743 36.7315Z" fill="white"/>
<path d="M8.79042 17.7447C9.17086 17.0858 10.0135 16.86 10.6724 17.2404C11.3313 17.6209 11.5571 18.4635 11.1767 19.1224C10.7962 19.7814 9.95364 20.0071 9.29469 19.6267C8.63575 19.2463 8.40998 18.4037 8.79042 17.7447Z" fill="white"/>
<path d="M33.4839 13.0238C33.8643 13.6827 33.6386 14.5253 32.9796 14.9058C32.3207 15.2862 31.4781 15.0605 31.0976 14.4015C30.7172 13.7426 30.9429 12.9 31.6019 12.5195C32.2608 12.1391 33.1034 12.3649 33.4839 13.0238Z" fill="white"/>
<path fill-rule="evenodd" clip-rule="evenodd" d="M22.5005 20.102C23.8252 20.102 24.8991 21.1759 24.8991 22.5005C24.8991 23.8252 23.8252 24.8991 22.5005 24.8991C21.1759 24.8991 20.102 23.8252 20.102 22.5005C20.102 21.1759 21.1759 20.102 22.5005 20.102Z" fill="white"/>
<defs>
<linearGradient id="paint0_linear_7_59" x1="23.006" y1="42.2402" x2="28.1017" y2="25.0844" gradientUnits="userSpaceOnUse">
<stop offset="0.377307" stop-color="white" stop-opacity="0.6"/>
<stop offset="0.992239" stop-color="white" stop-opacity="0"/>
</linearGradient>
<linearGradient id="paint1_linear_7_59" x1="22.6038" y1="2.75978" x2="29.1764" y2="19.3799" gradientUnits="userSpaceOnUse">
<stop offset="0.634963" stop-color="white" stop-opacity="0.81"/>
<stop offset="1" stop-color="white" stop-opacity="0"/>
</linearGradient>
<linearGradient id="paint2_linear_7_59" x1="20.1049" y1="15.9761" x2="20.1049" y2="35.5193" gradientUnits="userSpaceOnUse">
<stop stop-color="white" stop-opacity="0.81"/>
<stop offset="0.646422" stop-color="white"/>
</linearGradient>
<linearGradient id="paint3_linear_7_59" x1="10.3001" y1="18.0771" x2="18.9185" y2="24.1566" gradientUnits="userSpaceOnUse">
<stop stop-color="white" stop-opacity="0.6"/>
<stop offset="1" stop-color="white" stop-opacity="0"/>
</linearGradient>
<linearGradient id="paint4_linear_7_59" x1="40.5787" y1="32.3014" x2="21.4688" y2="29.1212" gradientUnits="userSpaceOnUse">
<stop offset="0.60731" stop-color="white" stop-opacity="0.81"/>
<stop offset="1" stop-color="white" stop-opacity="0"/>
</linearGradient>
<linearGradient id="paint5_linear_7_59" x1="29.6463" y1="21.8762" x2="4.83957" y2="12.6782" gradientUnits="userSpaceOnUse">
<stop stop-color="white" stop-opacity="0.81"/>
<stop offset="0.478389" stop-color="white"/>
</linearGradient>
<linearGradient id="paint6_linear_7_59" x1="32.6613" y1="14.1011" x2="22.3263" y2="18.9033" gradientUnits="userSpaceOnUse">
<stop stop-color="white" stop-opacity="0.6"/>
<stop offset="1" stop-color="white" stop-opacity="0"/>
</linearGradient>
<linearGradient id="paint7_linear_7_59" x1="4.85248" y1="32.4402" x2="17.7899" y2="18.9484" gradientUnits="userSpaceOnUse">
<stop offset="0.54518" stop-color="white" stop-opacity="0.81"/>
<stop offset="1" stop-color="white" stop-opacity="0"/>
</linearGradient>
<linearGradient id="paint8_linear_7_59" x1="40.1487" y1="12.1412" x2="19.2597" y2="29.5156" gradientUnits="userSpaceOnUse">
<stop offset="0.518582" stop-color="white"/>
<stop offset="1" stop-color="white" stop-opacity="0.81"/>
</linearGradient>
</defs>
</svg>
