<svg width="45" height="45" viewBox="0 0 45 45" fill="none" xmlns="http://www.w3.org/2000/svg">
<g clip-path="url(#clip0_7_48)">
<mask id="mask0_7_48" style="mask-type:luminance" maskUnits="userSpaceOnUse" x="0" y="0" width="45" height="45">
<path d="M45 0H0V45H45V0Z" fill="white"/>
</mask>
<g mask="url(#mask0_7_48)">
<path d="M22.4986 9.43841C27.2644 9.43841 31.1279 7.32555 31.1279 4.7192C31.1279 2.11286 27.2644 0 22.4986 0C17.7327 0 13.8691 2.11286 13.8691 4.7192C13.8691 7.32555 17.7327 9.43841 22.4986 9.43841Z" fill="white"/>
<path d="M22.4986 44.9967C27.2644 44.9967 31.1279 42.8839 31.1279 40.2776C31.1279 37.6713 27.2644 35.5583 22.4986 35.5583C17.7327 35.5583 13.8691 37.6713 13.8691 40.2776C13.8691 42.8839 17.7327 44.9967 22.4986 44.9967Z" fill="white"/>
<path d="M10.4726 15.9709C12.8556 12.09 12.8401 7.88684 10.4381 6.58278C8.03603 5.27872 4.15703 7.36763 1.77407 11.2485C-0.608874 15.1294 -0.593408 19.3325 1.80863 20.6366C4.21066 21.9406 8.08964 19.8518 10.4726 15.9709Z" fill="white"/>
<path d="M43.2192 33.748C45.602 29.8672 45.5879 25.6646 43.1875 24.3615C40.7871 23.0583 36.9094 25.1479 34.5264 29.0288C32.1435 32.9096 32.1576 37.1122 34.558 38.4153C36.9584 39.7185 40.8362 37.6289 43.2192 33.748Z" fill="white"/>
<path d="M10.4395 38.4142C12.8415 37.1101 12.8569 32.907 10.474 29.0261C8.09104 25.1452 4.21204 23.0564 1.81001 24.3604C-0.592018 25.6645 -0.607485 29.8676 1.77547 33.7485C4.15842 37.6294 8.03741 39.7182 10.4395 38.4142Z" fill="white"/>
<path d="M43.1888 20.6377C45.5892 19.3346 45.6034 15.132 43.2204 11.2512C40.8376 7.3703 36.9598 5.28068 34.5594 6.58385C32.159 7.88703 32.1448 12.0895 34.5278 15.9704C36.9108 19.8513 40.7884 21.9409 43.1888 20.6377Z" fill="white"/>
</g>
</g>
<defs>
<clipPath id="clip0_7_48">
<rect width="45" height="45" fill="white"/>
</clipPath>
</defs>
</svg>
