<svg width="45" height="45" viewBox="0 0 45 45" fill="none" xmlns="http://www.w3.org/2000/svg">
<g clip-path="url(#clip0_10_118)">
<path d="M18.1876 36.225C20.7764 36.225 22.8751 34.1263 22.8751 31.5375V26.85H18.1876C15.5987 26.85 13.5001 28.9487 13.5001 31.5375C13.5001 34.1263 15.5987 36.225 18.1876 36.225Z" fill="white"/>
<path d="M13.5001 22.1625C13.5001 19.5737 15.5987 17.475 18.1876 17.475H22.8751V26.85H18.1876C15.5987 26.85 13.5001 24.7513 13.5001 22.1625Z" fill="white"/>
<path d="M13.5001 12.7875C13.5001 10.1987 15.5987 8.10001 18.1876 8.10001H22.8751V17.475H18.1876C15.5987 17.475 13.5001 15.3763 13.5001 12.7875Z" fill="white"/>
<path d="M22.8751 8.10001H27.5626C30.1514 8.10001 32.2501 10.1987 32.2501 12.7875C32.2501 15.3763 30.1514 17.475 27.5626 17.475H22.8751V8.10001Z" fill="white"/>
<path d="M32.2501 22.1625C32.2501 24.7513 30.1514 26.85 27.5626 26.85C24.9737 26.85 22.8751 24.7513 22.8751 22.1625C22.8751 19.5737 24.9737 17.475 27.5626 17.475C30.1514 17.475 32.2501 19.5737 32.2501 22.1625Z" fill="white"/>
</g>
<defs>
<clipPath id="clip0_10_118">
<rect width="45" height="45" fill="white"/>
</clipPath>
</defs>
</svg>
