<svg width="45" height="45" viewBox="0 0 45 45" fill="none" xmlns="http://www.w3.org/2000/svg">
<path d="M3.29022 19.1777L3.92877 18.3629L12.0415 18.359L11.5192 19.1738L3.29022 19.1777ZM10.6482 21.1821L10.9173 20.3673L0.638557 20.3744L0 21.1892L10.6482 21.1821ZM10.3528 23.1936L10.4305 22.3788L5.75499 22.3827L5.30119 23.1975L10.3528 23.1936ZM40.1742 29.5744C35.676 32.0524 29.5303 31.003 27.8872 25.6303C26.9162 27.5412 25.3308 29.1073 23.4414 30.0004C18.9649 32.1163 12.8871 30.2711 12.1054 24.4723C11.5329 18.9144 16.0313 15.4799 18.6905 14.6128C22.9167 13.2963 27.0848 14.8432 28.5261 18.6933L23.9865 19.8831C23.5043 18.5409 20.8829 17.5744 18.8679 19.0312C15.6988 20.9865 15.7574 25.9071 19.5863 26.6378C21.5741 26.8926 22.9094 25.9104 23.9104 24.3995L18.9809 24.41L20.5649 20.9946H27.9526C31.1524 11.9676 43.6316 12.3629 44.8998 20.4743C45.3506 23.3573 44.3664 27.2651 40.1742 29.5744ZM36.0744 18.4061C32.6589 19.141 31.8076 22.1581 32.3348 24.0912C32.8959 26.1483 35.0691 27.4972 37.8264 26.2073C42.2456 24.1398 41.0872 17.3275 36.0744 18.4061Z" fill="white"/>
</svg>
