<svg width="45" height="45" viewBox="0 0 45 45" fill="none" xmlns="http://www.w3.org/2000/svg">
<path d="M12.8209 42.0311C12.7872 42.0311 12.7539 42.023 12.7239 42.0075C12.6939 41.992 12.668 41.9696 12.6485 41.9421L0.0391731 24.0855C0.0177645 24.0552 0.00470102 24.0198 0.00129665 23.9828C-0.00210771 23.9459 0.00426685 23.9087 0.0197775 23.875L9.15237 4.00775C9.16782 3.97402 9.19191 3.94497 9.22219 3.92354C9.25247 3.90211 9.28787 3.88906 9.32482 3.8857L31.0661 1.8748C31.1032 1.87031 31.1407 1.8762 31.1746 1.89182C31.2085 1.90744 31.2374 1.93217 31.258 1.96325L43.8674 19.8196C43.8888 19.8499 43.9018 19.8853 43.9052 19.9222C43.9086 19.9592 43.9023 19.9964 43.8868 20.0301L34.7545 39.8979C34.7389 39.9316 34.7148 39.9605 34.6845 39.982C34.6543 40.0034 34.6189 40.0165 34.582 40.0199L12.8404 42.0306C12.834 42.0311 12.8273 42.0311 12.8209 42.0311ZM0.454554 23.941L12.9229 41.5983L34.4217 39.6102L43.452 19.964L30.9836 2.30668L9.48515 4.29488L0.454554 23.941Z" fill="white"/>
<path d="M12.7449 41.9857L9.25519 23.8172L9.23814 3.95466L26.2401 8.95906L43.8703 19.9269L30.7764 31.566L12.7449 41.9857ZM9.44977 4.23709L9.46447 23.7971L12.8964 41.6544L30.6533 31.3956L43.5188 19.9563L26.1407 9.14595L9.44977 4.23709Z" fill="white"/>
<path d="M26.5192 9.79194C26.8689 9.79194 27.1523 9.50846 27.1523 9.15878C27.1523 8.80909 26.8689 8.52562 26.5192 8.52562C26.1695 8.52562 25.886 8.80909 25.886 9.15878C25.886 9.50846 26.1695 9.79194 26.5192 9.79194Z" fill="white"/>
<path d="M26.5192 10.4652C26.2608 10.4655 26.0081 10.3891 25.7931 10.2457C25.5781 10.1023 25.4104 9.89838 25.3113 9.65969C25.2122 9.421 25.1862 9.15828 25.2364 8.90477C25.2867 8.65126 25.411 8.41835 25.5936 8.23551C25.7763 8.05266 26.009 7.9281 26.2625 7.87757C26.516 7.82703 26.7787 7.85281 27.0175 7.95163C27.2563 8.05045 27.4604 8.21788 27.6041 8.43273C27.7477 8.64759 27.8244 8.90021 27.8244 9.15865C27.8241 9.50485 27.6866 9.83682 27.4419 10.0818C27.1973 10.3267 26.8654 10.4646 26.5192 10.4652ZM26.5192 9.12091L26.48 9.15864C26.4802 9.16887 26.4845 9.1786 26.4918 9.18572C26.4992 9.19284 26.509 9.19676 26.5192 9.19664V9.12091Z" fill="white"/>
<path d="M30.746 32.0823C31.0957 32.0823 31.3792 31.7988 31.3792 31.4491C31.3792 31.0994 31.0957 30.8159 30.746 30.8159C30.3963 30.8159 30.1129 31.0994 30.1129 31.4491C30.1129 31.7988 30.3963 32.0823 30.746 32.0823Z" fill="white"/>
<path d="M30.7459 32.7558C30.4875 32.7561 30.2347 32.6796 30.0197 32.5362C29.8047 32.3928 29.637 32.1888 29.538 31.95C29.4389 31.7113 29.4128 31.4486 29.4631 31.195C29.5134 30.9415 29.6378 30.7086 29.8204 30.5257C30.0031 30.3429 30.2359 30.2183 30.4894 30.1678C30.7429 30.1173 31.0057 30.1431 31.2445 30.242C31.4833 30.3408 31.6875 30.5083 31.8311 30.7232C31.9747 30.9381 32.0514 31.1908 32.0514 31.4492C32.0512 31.7955 31.9136 32.1275 31.6689 32.3725C31.4241 32.6175 31.0922 32.7553 30.7459 32.7558ZM30.7459 31.4115L30.707 31.4492C30.7072 31.4594 30.7114 31.469 30.7187 31.4761C30.726 31.4832 30.7358 31.4871 30.7459 31.4869V31.4115Z" fill="white"/>
<path d="M12.9755 42.4533C13.3252 42.4533 13.6087 42.1698 13.6087 41.8201C13.6087 41.4704 13.3252 41.1869 12.9755 41.1869C12.6258 41.1869 12.3424 41.4704 12.3424 41.8201C12.3424 42.1698 12.6258 42.4533 12.9755 42.4533Z" fill="white"/>
<path d="M12.9754 43.1267C12.7169 43.1269 12.4642 43.0505 12.2492 42.907C12.0341 42.7636 11.8665 42.5596 11.7674 42.3209C11.6683 42.0822 11.6423 41.8194 11.6926 41.5659C11.7429 41.3124 11.8672 41.0794 12.0499 40.8966C12.2326 40.7137 12.4654 40.5892 12.7189 40.5387C12.9724 40.4882 13.2351 40.514 13.474 40.6128C13.7128 40.7117 13.9169 40.8791 14.0605 41.094C14.2041 41.3089 14.2808 41.5616 14.2808 41.8201C14.2806 42.1663 14.1431 42.4984 13.8983 42.7433C13.6536 42.9883 13.3217 43.1262 12.9754 43.1267ZM12.9754 41.7823L12.9365 41.8201C12.9367 41.8302 12.9409 41.8399 12.9482 41.8469C12.9555 41.854 12.9652 41.8579 12.9754 41.8578V41.7823Z" fill="white"/>
<path d="M9.34379 24.6417C9.69348 24.6417 9.97696 24.3582 9.97696 24.0085C9.97696 23.6589 9.69348 23.3754 9.34379 23.3754C8.99411 23.3754 8.71063 23.6589 8.71063 24.0085C8.71063 24.3582 8.99411 24.6417 9.34379 24.6417Z" fill="white"/>
<path d="M9.34393 25.3148C9.08551 25.315 8.83282 25.2386 8.61784 25.0952C8.40286 24.9518 8.23524 24.7478 8.1362 24.5092C8.03716 24.2705 8.01114 24.0078 8.06143 23.7543C8.11173 23.5008 8.23608 23.2679 8.41875 23.0851C8.60142 22.9023 8.83421 22.7778 9.08766 22.7274C9.34111 22.6769 9.60383 22.7027 9.84259 22.8016C10.0814 22.9005 10.2854 23.068 10.429 23.2829C10.5725 23.4977 10.6491 23.7504 10.6491 24.0088C10.6487 24.3549 10.5111 24.6868 10.2664 24.9316C10.0218 25.1764 9.69004 25.3142 9.34393 25.3148ZM9.34393 23.9705L9.30472 24.0088C9.30502 24.019 9.3093 24.0286 9.31663 24.0357C9.32396 24.0427 9.33376 24.0466 9.34393 24.0465V23.9705Z" fill="white"/>
<path d="M43.6946 20.6064C44.0443 20.6064 44.3278 20.323 44.3278 19.9733C44.3278 19.6236 44.0443 19.3401 43.6946 19.3401C43.3449 19.3401 43.0614 19.6236 43.0614 19.9733C43.0614 20.323 43.3449 20.6064 43.6946 20.6064Z" fill="white"/>
<path d="M43.6946 21.2795C43.4362 21.2797 43.1835 21.2032 42.9686 21.0597C42.7536 20.9163 42.5861 20.7123 42.4871 20.4736C42.3881 20.2349 42.3621 19.9722 42.4124 19.7188C42.4627 19.4653 42.5871 19.2325 42.7698 19.0497C42.9525 18.8669 43.1853 18.7424 43.4387 18.692C43.6921 18.6416 43.9549 18.6674 44.1936 18.7663C44.4323 18.8652 44.6364 19.0327 44.7799 19.2476C44.9235 19.4624 45.0001 19.7151 45 19.9735C44.9996 20.3196 44.862 20.6515 44.6173 20.8963C44.3726 21.1412 44.0407 21.2789 43.6946 21.2795ZM43.6946 19.9351L43.6557 19.9735C43.6559 19.9836 43.66 19.9933 43.6673 20.0004C43.6746 20.0074 43.6844 20.0113 43.6946 20.0112V19.9351Z" fill="white"/>
<path d="M9.34379 4.72912C9.69348 4.72912 9.97696 4.44565 9.97696 4.09596C9.97696 3.74628 9.69348 3.4628 9.34379 3.4628C8.99411 3.4628 8.71063 3.74628 8.71063 4.09596C8.71063 4.44565 8.99411 4.72912 9.34379 4.72912Z" fill="white"/>
<path d="M9.34393 5.40248C9.08549 5.40274 8.83278 5.32635 8.61776 5.18296C8.40274 5.03957 8.23509 4.83563 8.136 4.59694C8.03691 4.35825 8.01084 4.09553 8.06109 3.84202C8.11134 3.58851 8.23564 3.3556 8.41829 3.17275C8.60093 2.9899 8.8337 2.86533 9.08715 2.8148C9.34061 2.76427 9.60335 2.79004 9.84215 2.88886C10.081 2.98768 10.2851 3.15511 10.4287 3.36996C10.5723 3.58482 10.649 3.83744 10.6491 4.09588C10.6488 4.44208 10.5113 4.77405 10.2666 5.01898C10.0219 5.26392 9.69013 5.40183 9.34393 5.40248ZM9.34393 4.05814L9.30469 4.09589C9.30489 4.10612 9.30913 4.11585 9.31647 4.12297C9.32382 4.13009 9.33368 4.13401 9.34391 4.13389L9.34393 4.05814Z" fill="white"/>
<path d="M34.5623 40.0211C34.5383 40.0213 34.5144 40.0174 34.4918 40.0094L17.9146 34.1574L0.107822 24.148C0.0787022 24.1317 0.0538706 24.1087 0.0353679 24.081C0.0168653 24.0532 0.00522079 24.0214 0.00139211 23.9883C-0.00243657 23.9551 0.00165934 23.9215 0.0133441 23.8902C0.0250289 23.859 0.0439676 23.8309 0.0686038 23.8084L13.466 11.5319L30.9836 1.90051C31.0122 1.88462 31.0441 1.87566 31.0769 1.87432C31.1096 1.87299 31.1421 1.87933 31.172 1.89284C31.2018 1.90632 31.228 1.92651 31.2488 1.95182C31.2695 1.97714 31.284 2.00689 31.2914 2.03877L35.2162 19.2928L34.7734 39.8148C34.7726 39.8482 34.7639 39.8809 34.7481 39.9104C34.7323 39.9398 34.7097 39.965 34.6823 39.984C34.647 40.0084 34.6051 40.0213 34.5623 40.0211ZM0.568913 23.9227L18.0886 33.7741L34.3574 39.5141L34.799 19.3349L30.9414 2.40546L13.7104 11.8727L0.568913 23.9227Z" fill="white"/>
<path d="M30.8149 31.5288L30.7285 31.4993L9.24015 24.0289L9.30942 23.9687L26.554 9.0587L30.8149 31.5288ZM9.4477 23.9888L30.677 31.3696L26.4845 9.25859L9.4477 23.9888Z" fill="white"/>
<path d="M17.8477 34.3537L13.3298 11.3629L35.4234 19.2624L17.8477 34.3537ZM13.8875 12.0109L18.1225 33.5613L34.5968 19.4157L13.8875 12.0109Z" fill="white"/>
<path d="M9.52817 3.99237L9.15969 4.19938L13.4244 11.7904L13.7929 11.5834L9.52817 3.99237Z" fill="white"/>
<path d="M17.8072 33.8435L18.1633 34.0715L13.1534 41.9339L12.7972 41.7064L17.8072 33.8435Z" fill="white"/>
<path d="M35.0255 19.1284L34.9947 19.5495L43.6792 20.184L43.71 19.7628L35.0255 19.1284Z" fill="white"/>
</svg>
