<svg width="45" height="45" viewBox="0 0 45 45" fill="none" xmlns="http://www.w3.org/2000/svg">
<path d="M22.8737 27.4768H16.1027L14.41 32.6151C14.3905 32.7717 14.2835 32.85 14.0889 32.85H11.0245C10.8299 32.85 10.7618 32.7521 10.8202 32.5564L16.8907 15.1155C17.0269 14.8219 17.1145 14.2738 17.1534 13.4713C17.1534 13.3538 17.2215 13.2951 17.3577 13.2951H21.5603C21.6576 13.2951 21.7354 13.344 21.7938 13.4419L28.5648 32.5857C28.6231 32.7619 28.5648 32.85 28.3897 32.85H24.9458C24.8096 32.85 24.7123 32.7815 24.654 32.6445L22.8737 27.4768ZM16.8615 24.6287H22.1149C22.037 24.3547 21.6284 23.1117 20.8891 20.8998C20.1692 18.6683 19.6925 17.1415 19.459 16.3194H19.4298C19.1963 17.3177 18.3402 20.0874 16.8615 24.6287Z" fill="white"/>
<path d="M30.3767 32.5857V18.7857C30.3767 18.6291 30.4546 18.5508 30.6102 18.5508H33.8498C34.0054 18.5508 34.0833 18.6291 34.0833 18.7857V32.6151C34.0833 32.7717 34.0054 32.85 33.8498 32.85H30.6394C30.4643 32.85 30.3767 32.7619 30.3767 32.5857ZM33.6747 15.5853C33.3244 15.9377 32.8478 16.1138 32.2446 16.1138C31.6414 16.1138 31.1647 15.9377 30.8145 15.5853C30.4643 15.233 30.2892 14.7534 30.2892 14.1466C30.2892 13.5594 30.474 13.0798 30.8437 12.7079C31.2134 12.336 31.6901 12.15 32.2738 12.15C32.8575 12.15 33.3244 12.336 33.6747 12.7079C34.0249 13.0798 34.2 13.5594 34.2 14.1466C34.2 14.7534 34.0249 15.233 33.6747 15.5853Z" fill="white"/>
</svg>
