<svg width="45" height="45" viewBox="0 0 45 45" fill="none" xmlns="http://www.w3.org/2000/svg">
<path d="M5.625 5.625H39.375V39.375H5.625V5.625ZM14.4937 33.825C15.2437 35.4188 16.725 36.7313 19.2563 36.7313C22.0688 36.7313 24 35.2313 24 31.95V21.1125H20.8125V31.875C20.8125 33.4875 20.1562 33.9 19.125 33.9C18.0375 33.9 17.5875 33.15 17.0812 32.2687L14.4937 33.825ZM25.7062 33.4875C26.6437 35.325 28.5375 36.7313 31.5 36.7313C34.5 36.7313 36.75 35.175 36.75 32.3062C36.75 29.6625 35.2313 28.4812 32.5312 27.3187L31.7438 26.9813C30.375 26.4 29.7938 26.0063 29.7938 25.0688C29.7938 24.3 30.375 23.7 31.3125 23.7C32.2125 23.7 32.8125 24.0938 33.3563 25.0688L35.8125 23.4375C34.7812 21.6375 33.3188 20.9438 31.3125 20.9438C28.4813 20.9438 26.6625 22.7437 26.6625 25.125C26.6625 27.7125 28.1812 28.9312 30.4688 29.9062L31.2563 30.2437C32.7188 30.8812 33.5812 31.275 33.5812 32.3625C33.5812 33.2625 32.7375 33.9188 31.425 33.9188C29.8687 33.9188 28.9688 33.1125 28.2938 31.9875L25.7062 33.4875Z" fill="white"/>
</svg>
