<svg width="45" height="45" viewBox="0 0 45 45" fill="none" xmlns="http://www.w3.org/2000/svg">
<path d="M9.92725 8.76621C8.16775 8.76621 6.28678 8.84261 4.33828 8.99561C3.85678 9.03161 3.49235 9.44575 3.51035 9.92725C3.52835 10.4087 3.92435 10.7912 4.41035 10.7912C10.6699 10.8002 16.4111 11.5605 20.0786 12.789C18.9581 12.6945 17.8247 12.6404 16.6772 12.6404C8.12725 12.6404 1.71042 15.2597 1.44492 15.3677C1.00842 15.5522 0.787642 16.0339 0.931642 16.4839C1.05764 16.8574 1.40882 17.1 1.78682 17.1C1.85882 17.1 1.93092 17.0908 2.00742 17.0728C2.07492 17.0548 9.21642 15.3 16.4074 15.3C17.3344 15.3 18.2254 15.3313 19.0714 15.3853C11.1109 16.6543 5.15714 21.1457 4.86914 21.3662C4.49114 21.6587 4.40589 22.1893 4.67139 22.5853C4.84689 22.8418 5.12958 22.9816 5.41758 22.9816C5.57508 22.9816 5.73325 22.9406 5.87725 22.8551C5.96275 22.8056 14.3773 17.8603 22.8463 17.8603C23.0803 17.8603 23.3102 17.8609 23.5397 17.8699H23.5661C22.4456 18.8059 20.9742 20.6057 21.0867 23.5397C21.2307 27.2432 23.9218 29.4705 26.5228 30.0375C27.5938 30.2715 28.5077 30.3255 29.3897 30.375C31.0142 30.474 32.4226 30.5547 34.6096 31.7742C37.0531 33.1332 38.9028 36.7151 39.3258 40.8911C39.3708 41.3456 39.7527 41.697 40.2117 41.7015H40.2214C40.6759 41.7015 41.0576 41.364 41.1161 40.914C41.1431 40.6935 41.5939 36.7199 39.1324 32.8184C40.0549 33.6509 40.8419 34.8071 41.1029 36.3911C41.1749 36.8231 41.5532 37.1426 41.9897 37.1426H42.0029C42.4484 37.1336 42.8224 36.8057 42.8854 36.3647C42.8989 36.2522 43.2313 33.5786 40.9588 31.1396C38.6008 28.6061 34.6408 27.3243 29.1823 27.3243C27.5263 27.3243 26.2441 26.8699 25.3846 25.9699C24.4396 24.9844 24.1471 23.5983 24.1831 22.7118C24.2416 21.2943 25.3756 19.6383 28.3816 19.6383C30.0241 19.6383 32.9716 21.0191 34.3846 21.7661C34.4746 22.2611 34.6811 22.8281 35.1536 23.1161C35.2796 23.1971 35.4193 23.2559 35.5948 23.3279C36.1078 23.5484 36.9676 23.9131 37.9846 25.0471C38.1601 25.2406 38.4077 25.3441 38.6552 25.3441C38.8262 25.3441 38.997 25.2946 39.15 25.1956L40.5044 24.3044C40.8104 24.1019 40.9639 23.7379 40.8964 23.3824C40.8244 23.0269 40.5496 22.7434 40.1941 22.6714C39.7261 22.5724 39.1364 22.3426 38.8169 22.1581C38.8034 21.9511 38.7401 21.7392 38.6051 21.5367C38.5421 21.4422 38.4664 21.3528 38.3854 21.2493C38.2099 21.0423 37.9753 20.7585 37.7728 20.3265C37.7008 20.178 37.5214 19.899 37.1479 19.7235C37.2514 19.6335 37.3408 19.5253 37.3948 19.3948C37.5343 19.0573 37.4581 18.6705 37.1971 18.414C33.3001 14.535 29.988 13.7249 29.8485 13.6934C29.781 13.6754 29.7131 13.6661 29.6411 13.6661C29.2721 13.6661 28.935 13.8959 28.8 14.2559C28.6425 14.6789 28.8267 15.1562 29.2271 15.3677C29.2496 15.3767 30.4692 16.0152 31.8507 16.9242H31.8243C31.6173 16.9377 31.4278 17.0284 31.2838 17.1589C30.8473 16.9879 30.2892 16.8027 29.6772 16.6992C29.1327 16.6047 28.5569 16.5913 28.0529 16.5823C27.6119 16.5733 26.9416 16.5556 26.7706 16.4566C26.7121 16.4071 26.6354 16.3483 26.5544 16.2853C26.1179 15.9613 25.4562 15.4714 25.2132 12.4699C25.1952 12.2269 25.0736 11.9971 24.8801 11.8441C24.7271 11.7181 20.9387 8.76621 9.92725 8.76621ZM9.92725 9.66621C20.7497 9.66621 24.3176 12.5464 24.3176 12.5464C24.6236 16.3534 25.641 16.6864 26.2125 17.1589C26.7795 17.6359 28.2912 17.3745 29.5242 17.586C30.7572 17.7975 31.7479 18.3691 31.7479 18.3691L31.8911 17.8242C32.2871 18.7557 33.2411 19.0758 33.2411 19.0758V18.3419C33.5966 19.1969 34.5911 19.7868 34.5911 19.7868V19.0846C34.5911 19.0846 34.9244 19.5929 35.2529 19.9529C35.5859 20.3174 35.9367 20.5198 35.9367 20.5198C35.9367 20.5198 36.1579 20.4662 36.3964 20.4662C36.6214 20.4662 36.8644 20.5153 36.9589 20.7088C37.3009 21.4423 37.7149 21.8253 37.8589 22.0368C37.9984 22.2483 37.8589 22.5 37.8589 22.5C38.0929 22.941 39.3256 23.4089 40.0096 23.5529L38.6552 24.4441C37.2062 22.8331 35.973 22.5675 35.6265 22.3515C35.2755 22.1355 35.2213 21.1992 35.2213 21.1992C35.2213 21.1992 30.8386 18.7383 28.3816 18.7383C24.7591 18.7383 23.3551 20.9073 23.2831 22.6758C23.2111 24.4398 24.1783 28.2243 29.1823 28.2243C34.9468 28.2243 38.3942 29.7092 40.3022 31.7522C42.3092 33.9077 41.9941 36.2426 41.9941 36.2426C41.1166 30.9641 35.1536 29.8934 35.1536 29.8934C41.0441 34.1999 40.2214 40.8015 40.2214 40.8015C39.8209 36.8325 38.0569 32.6652 35.0464 30.9867C31.4644 28.9887 29.6727 29.8039 26.7117 29.1604C24.5652 28.6924 22.1172 26.8741 21.9867 23.5081C21.8292 19.4536 25.1596 17.8743 25.1596 17.8743L23.6338 13.5132C20.6908 11.3037 12.9154 9.90021 4.41035 9.89121C6.43085 9.73821 8.26675 9.66621 9.92725 9.66621ZM16.6772 13.5404C18.6302 13.5404 20.6865 13.68 22.8015 14.0265C22.8015 14.031 22.8058 14.0308 22.8103 14.0353L23.0449 15.0117C20.9524 14.5707 18.6754 14.4 16.4074 14.4C9.01392 14.4 1.78682 16.2 1.78682 16.2C1.78682 16.2 8.20825 13.5404 16.6772 13.5404ZM29.6552 14.5714C29.8712 14.6254 32.9355 15.4439 36.5625 19.0529H35.8022C34.0292 16.8794 29.9117 14.7064 29.6552 14.5714ZM23.1574 15.9521H23.1926L23.5714 16.9699C23.3284 16.9609 23.0893 16.9603 22.8463 16.9603C14.1568 16.9603 5.68835 21.9242 5.42285 22.0772C5.67035 21.8927 13.5634 15.9521 23.1574 15.9521ZM36.8605 21.5684C36.8605 21.5684 36.82 21.8242 36.8605 21.8953C36.9379 22.0321 37.4001 22.2196 37.4001 22.2196L36.8605 21.5684Z" fill="white"/>
</svg>
