<svg width="45" height="45" viewBox="0 0 45 45" fill="none" xmlns="http://www.w3.org/2000/svg">
<path d="M22.6938 32.175H11.9631C11.7877 32.175 11.7 32.0773 11.7 31.8818V13.0595C11.7 12.9032 11.778 12.825 11.9339 12.825H15.0625C15.1794 12.825 15.2379 12.8934 15.2379 13.0302V29.4191H23.2494C23.4248 29.4191 23.493 29.4973 23.454 29.6536L22.9862 31.9405C22.9472 32.0968 22.8498 32.175 22.6938 32.175Z" fill="white"/>
<path d="M25.0343 17.897H27.7828C27.9387 17.897 28.0459 17.9752 28.1044 18.1316C28.2603 18.5225 28.3578 19.0893 28.3968 19.832C29.5273 18.3661 31.0185 17.6332 32.8703 17.6332C33.0068 17.6332 33.075 17.7016 33.075 17.8384V20.7995C33.075 20.9559 32.997 21.0243 32.8411 21.0048C31.1452 20.907 29.81 21.3468 28.8354 22.3241C28.6599 22.5 28.5722 22.7345 28.5722 23.0277V31.9698C28.5722 32.1066 28.4942 32.175 28.3383 32.175H25.2682C25.0928 32.175 25.0051 32.0968 25.0051 31.9405V22.0309C25.0051 20.4477 24.9563 19.1382 24.8589 18.1023C24.8394 17.9655 24.8979 17.897 25.0343 17.897Z" fill="white"/>
</svg>
