<svg width="45" height="45" viewBox="0 0 45 45" fill="none" xmlns="http://www.w3.org/2000/svg">
<path d="M11.025 31.9704V13.0881C11.025 12.9517 11.0837 12.8835 11.2011 12.8835C12.4536 12.8445 14.2148 12.825 16.4849 12.825C19.0681 12.825 20.9663 13.4193 22.1796 14.608C23.4125 15.7772 24.0289 17.2484 24.0289 19.0217C24.0289 21.1652 23.2755 22.7826 21.7687 23.8738C20.2814 24.9455 18.3929 25.4814 16.1033 25.4814C15.8293 25.4814 15.5064 25.4814 15.1346 25.4814C14.7823 25.4619 14.5964 25.4522 14.5769 25.4522V31.9704C14.5769 32.1068 14.4986 32.175 14.342 32.175H11.2305C11.0935 32.175 11.025 32.1068 11.025 31.9704ZM14.5769 15.5434V22.7338C14.8508 22.7728 15.4184 22.7923 16.2794 22.7923C17.5123 22.7923 18.5201 22.5097 19.3029 21.9446C20.0857 21.36 20.4771 20.4052 20.4771 19.0801C20.4771 17.9499 20.1248 17.073 19.4203 16.4495C18.7354 15.8064 17.7569 15.4849 16.4849 15.4849C15.4477 15.4849 14.8117 15.5044 14.5769 15.5434Z" fill="white"/>
<path d="M25.9026 17.9402H28.6619C28.8184 17.9402 28.9261 18.0181 28.9848 18.174C29.1413 18.5637 29.2392 19.1288 29.2783 19.8693C30.4133 18.4079 31.9104 17.6771 33.7695 17.6771C33.9065 17.6771 33.975 17.7453 33.975 17.8817V20.8339C33.975 20.9898 33.8967 21.058 33.7402 21.0385C32.0376 20.9411 30.6971 21.3795 29.7186 22.3538C29.5425 22.5292 29.4544 22.7631 29.4544 23.0554V31.9704C29.4544 32.1068 29.3762 32.175 29.2196 32.175H26.1374C25.9613 32.175 25.8732 32.0971 25.8732 31.9412V22.0616C25.8732 20.4832 25.8243 19.1776 25.7264 18.1448C25.7069 18.0084 25.7656 17.9402 25.9026 17.9402Z" fill="white"/>
</svg>
