<svg width="45" height="45" viewBox="0 0 45 45" fill="none" xmlns="http://www.w3.org/2000/svg">
<path d="M10.125 31.9035V12.8628C10.125 12.7266 10.1932 12.6584 10.3297 12.6584C11.8117 12.6195 13.6933 12.6 15.9747 12.6C18.6656 12.6 20.635 13.2035 21.8829 14.4106C23.1503 15.6177 23.784 17.1071 23.784 18.8788C23.784 21.0788 23.0041 22.7142 21.4442 23.785C19.8842 24.8558 17.9246 25.3912 15.5652 25.3912H13.8396V31.8743C13.8396 32.0301 13.7616 32.108 13.6056 32.108H10.359C10.203 32.108 10.125 32.0398 10.125 31.9035ZM13.8396 15.4035V22.5876C14.1125 22.6266 14.7463 22.646 15.7407 22.646C17.0471 22.646 18.1001 22.3637 18.8995 21.7991C19.7185 21.2151 20.128 20.2708 20.128 18.9664C20.128 17.8177 19.7672 16.9319 19.0458 16.3089C18.3438 15.6858 17.3201 15.3743 15.9747 15.3743C15.6432 15.3743 15.3117 15.3841 14.9802 15.4035C14.6683 15.4035 14.405 15.4035 14.1905 15.4035C13.9955 15.4035 13.8786 15.4035 13.8396 15.4035Z" fill="white"/>
<path d="M33.9886 21.2443C32.8966 20.5628 31.7559 20.2221 30.5665 20.2221C29.884 20.2221 29.3771 20.3487 29.0456 20.6018C28.7336 20.8549 28.5776 21.1566 28.5776 21.5071C28.5776 21.8575 28.7141 22.169 28.9871 22.4416C29.2601 22.6947 29.8353 22.9965 30.7127 23.3469C32.3311 23.9699 33.4621 24.6319 34.1056 25.3327C34.7685 26.0142 35.1 26.9 35.1 27.9903C35.1 29.3142 34.593 30.385 33.5791 31.2027C32.5846 32.0009 31.2295 32.4 29.5135 32.4C27.7976 32.4 26.3937 32.0885 25.3018 31.4655C25.1848 31.4266 25.1263 31.3292 25.1263 31.1735V28.4575C25.1263 28.3797 25.1458 28.331 25.1848 28.3115C25.2433 28.2726 25.292 28.2726 25.331 28.3115C26.5984 29.246 27.9536 29.7133 29.3965 29.7133C30.079 29.7133 30.5957 29.5965 30.9467 29.3628C31.3172 29.1097 31.5024 28.7885 31.5024 28.3991C31.5024 27.9903 31.3562 27.6496 31.0637 27.377C30.7712 27.085 30.196 26.7735 29.3381 26.4425C27.7781 25.8389 26.6862 25.1965 26.0622 24.515C25.4578 23.8142 25.1555 22.9381 25.1555 21.8867C25.1555 20.6797 25.6137 19.6673 26.5302 18.8496C27.4466 18.0319 28.7531 17.623 30.4495 17.623C32.0289 17.623 33.2476 17.8372 34.1056 18.2655C34.203 18.3239 34.2518 18.4504 34.2518 18.6451V21.069C34.2518 21.3027 34.164 21.3611 33.9886 21.2443Z" fill="white"/>
</svg>
