<svg width="45" height="45" viewBox="0 0 45 45" fill="none" xmlns="http://www.w3.org/2000/svg">
<path d="M41.9062 22.0247L40.2553 21.0037C40.2553 20.8434 40.2272 20.6831 40.2075 20.5228L41.6137 19.1981C41.6861 19.1329 41.7403 19.05 41.7709 18.9575C41.8016 18.8651 41.8078 18.7662 41.7888 18.6707C41.7698 18.5751 41.7263 18.4862 41.6626 18.4125C41.5989 18.3388 41.5171 18.2829 41.4253 18.2503L39.6112 17.5725C39.5662 17.415 39.5184 17.2603 39.4706 17.1028L40.5956 15.5306C40.6552 15.4509 40.6925 15.3569 40.7039 15.2581C40.7153 15.1593 40.7002 15.0592 40.6603 14.9681C40.625 14.8803 40.568 14.8028 40.4948 14.7428C40.4215 14.6828 40.3343 14.6423 40.2412 14.625L38.3287 14.3128C38.2556 14.1666 38.1769 14.0316 38.0981 13.8825L38.9025 12.1162C38.9446 12.0282 38.9631 11.9308 38.9561 11.8335C38.9491 11.7361 38.917 11.6423 38.8628 11.5612C38.8086 11.4801 38.7343 11.4144 38.647 11.3707C38.5598 11.327 38.4627 11.3067 38.3653 11.3119L36.4247 11.3794C36.3234 11.2556 36.2222 11.1291 36.1181 11.0053L36.5625 9.12937C36.588 9.03464 36.5884 8.93488 36.5634 8.84C36.5385 8.74511 36.4892 8.65839 36.4204 8.58845C36.3516 8.51851 36.2657 8.46778 36.1712 8.4413C36.0767 8.41482 35.977 8.41351 35.8819 8.43749L33.9919 8.88468C33.8681 8.78624 33.75 8.68499 33.6178 8.58374L33.6853 6.64312C33.6894 6.54648 33.6685 6.45041 33.6247 6.3642C33.5809 6.27798 33.5155 6.20453 33.435 6.15093C33.3535 6.09455 33.2586 6.06069 33.1598 6.05279C33.061 6.04489 32.9619 6.06322 32.8725 6.10593L31.1062 6.91031L30.6759 6.67968L30.375 4.76718C30.3596 4.67126 30.3197 4.58095 30.2591 4.50505C30.1985 4.42914 30.1192 4.37023 30.0291 4.33406C29.9379 4.29414 29.8379 4.2791 29.7391 4.29046C29.6403 4.30183 29.5462 4.33919 29.4666 4.39874L27.8944 5.52374L27.4275 5.38312L26.7666 3.57187C26.7349 3.47944 26.6798 3.39684 26.6065 3.33221C26.5332 3.26758 26.4444 3.22315 26.3488 3.20328C26.2531 3.18341 26.1539 3.1888 26.061 3.21891C25.9681 3.24901 25.8846 3.30281 25.8187 3.37499L24.4941 4.79531L24.0131 4.75593L22.9894 3.09374C22.9396 3.0098 22.8688 2.94027 22.784 2.89198C22.6991 2.84368 22.6032 2.81828 22.5056 2.81828C22.408 2.81828 22.3121 2.84368 22.2273 2.89198C22.1425 2.94027 22.0717 3.0098 22.0219 3.09374L21.0009 4.74468L20.5312 4.80374L19.1953 3.37499C19.1301 3.30265 19.0472 3.24848 18.9547 3.2178C18.8623 3.18712 18.7634 3.18098 18.6679 3.19998C18.5723 3.21897 18.4834 3.26245 18.4097 3.32617C18.336 3.38988 18.2801 3.47163 18.2475 3.56343L17.5669 5.37749L17.1 5.51812L15.5278 4.39312C15.4498 4.33453 15.3579 4.29724 15.2611 4.28491C15.1643 4.27258 15.066 4.28564 14.9758 4.3228C14.8856 4.35997 14.8066 4.41996 14.7465 4.49688C14.6865 4.5738 14.6475 4.66501 14.6334 4.76155L14.3212 6.67405C14.1806 6.74999 14.0344 6.83155 13.8937 6.91031L12.1275 6.10593C12.0381 6.06322 11.939 6.04489 11.8402 6.05279C11.7414 6.06069 11.6465 6.09455 11.565 6.15093C11.4845 6.20453 11.4191 6.27798 11.3753 6.3642C11.3314 6.45041 11.3106 6.54648 11.3147 6.64312L11.3822 8.58374C11.2584 8.68499 11.1319 8.78624 11.0081 8.89031L9.12655 8.43749C9.03087 8.41166 8.93005 8.41157 8.83432 8.43723C8.73859 8.46289 8.65133 8.51339 8.58139 8.58361C8.51145 8.65384 8.46131 8.7413 8.43604 8.83714C8.41077 8.93297 8.41127 9.03379 8.43749 9.12937L8.89031 11.0222C8.78624 11.1459 8.68499 11.2669 8.58374 11.3962L6.64312 11.3287C6.54569 11.3236 6.4486 11.3439 6.36138 11.3876C6.27416 11.4313 6.1998 11.4969 6.14562 11.5781C6.09144 11.6592 6.05929 11.753 6.05233 11.8503C6.04537 11.9476 6.06384 12.0451 6.10593 12.1331L6.91031 13.8937C6.83155 14.0344 6.75562 14.175 6.67968 14.3241L4.76718 14.625C4.67064 14.6391 4.57943 14.6781 4.5025 14.7381C4.42558 14.7981 4.36559 14.8771 4.32843 14.9673C4.29127 15.0575 4.27821 15.1559 4.29053 15.2527C4.30286 15.3494 4.34015 15.4414 4.39874 15.5194L5.52374 17.0916C5.47593 17.2462 5.42812 17.4037 5.38312 17.5612L3.57187 18.2503C3.48007 18.2829 3.39831 18.3388 3.3346 18.4125C3.27089 18.4862 3.22741 18.5751 3.20841 18.6707C3.18942 18.7662 3.19556 18.8651 3.22624 18.9575C3.25692 19.05 3.31108 19.1329 3.38343 19.1981L4.80374 20.5312C4.78124 20.6831 4.78124 20.8434 4.75593 21.0037L3.09374 22.0247C3.0098 22.0745 2.94027 22.1453 2.89198 22.2301C2.84368 22.3149 2.81828 22.4108 2.81828 22.5084C2.81828 22.606 2.84368 22.702 2.89198 22.7868C2.94027 22.8716 3.0098 22.9424 3.09374 22.9922L4.75593 24.0131C4.78124 24.1875 4.78124 24.3366 4.80374 24.4941L3.37499 25.8187C3.30265 25.884 3.24848 25.9669 3.2178 26.0593C3.18712 26.1518 3.18098 26.2506 3.19998 26.3462C3.21897 26.4417 3.26245 26.5307 3.32617 26.6044C3.38988 26.6781 3.47163 26.734 3.56343 26.7666L5.38593 27.4472C5.43093 27.6047 5.47874 27.7622 5.52656 27.9169L4.40156 29.4891C4.34452 29.5672 4.30861 29.6587 4.29728 29.7548C4.28594 29.8509 4.29958 29.9482 4.33687 30.0375C4.37344 30.1271 4.43252 30.2058 4.50839 30.2659C4.58427 30.326 4.67437 30.3655 4.76999 30.3806L6.68249 30.6928C6.75562 30.8391 6.83437 30.9741 6.91312 31.1231L6.10874 32.8866C6.06665 32.9746 6.04818 33.072 6.05514 33.1693C6.0621 33.2666 6.09425 33.3605 6.14843 33.4416C6.20262 33.5227 6.27697 33.5884 6.36419 33.6321C6.45141 33.6758 6.5485 33.6961 6.64593 33.6909L8.58655 33.6234C8.6878 33.75 8.78906 33.8737 8.89312 33.9975L8.43749 35.8847C8.41433 35.9793 8.41615 36.0784 8.44278 36.1721C8.46941 36.2659 8.51994 36.3511 8.58941 36.4194C8.65888 36.4877 8.74491 36.5368 8.83907 36.5619C8.93323 36.587 9.0323 36.5872 9.12655 36.5625L11.0194 36.1181L11.3934 36.4247L11.3259 38.3681C11.3213 38.4653 11.3419 38.562 11.3859 38.6489C11.4298 38.7357 11.4955 38.8096 11.5765 38.8635C11.6576 38.9173 11.7512 38.9492 11.8483 38.9561C11.9453 38.9629 12.0425 38.9444 12.1303 38.9025L13.8966 38.0981C14.0372 38.1769 14.1778 38.2528 14.3269 38.3287L14.625 40.2497C14.6401 40.3453 14.6796 40.4354 14.7397 40.5113C14.7998 40.5872 14.8785 40.6462 14.9681 40.6828C15.0593 40.7217 15.1589 40.7365 15.2575 40.7256C15.356 40.7148 15.4501 40.6787 15.5306 40.6209L17.1028 39.4959L17.5725 39.6366L18.2531 41.4506C18.2857 41.5424 18.3416 41.6242 18.4153 41.6879C18.489 41.7516 18.578 41.7951 18.6735 41.8141C18.769 41.8331 18.8679 41.8269 18.9603 41.7962C19.0528 41.7656 19.1357 41.7114 19.2009 41.6391L20.5312 40.2187C20.6916 40.2384 20.8519 40.2525 21.015 40.2666L22.0275 41.9062C22.0775 41.9895 22.1482 42.0585 22.2327 42.1063C22.3172 42.1542 22.4127 42.1793 22.5098 42.1793C22.607 42.1793 22.7025 42.1542 22.787 42.1063C22.8715 42.0585 22.9422 41.9895 22.9922 41.9062L24.0131 40.2553L24.4941 40.2187L25.8187 41.625C25.884 41.6973 25.9669 41.7515 26.0593 41.7822C26.1518 41.8129 26.2506 41.819 26.3462 41.8C26.4417 41.781 26.5307 41.7375 26.6044 41.6738C26.6781 41.6101 26.734 41.5284 26.7666 41.4366L27.4472 39.6225L27.9169 39.4819L29.4891 40.6069C29.569 40.666 29.6631 40.7028 29.762 40.7137C29.8608 40.7246 29.9607 40.709 30.0516 40.6687C30.1412 40.6322 30.2199 40.5731 30.28 40.4972C30.3401 40.4213 30.3796 40.3312 30.3947 40.2356L30.7069 38.3231L31.1372 38.0925L32.9034 38.8969C32.9911 38.9382 33.088 38.9561 33.1846 38.9489C33.2813 38.9418 33.3744 38.9098 33.4551 38.856C33.5357 38.8022 33.6011 38.7285 33.6449 38.6421C33.6887 38.5556 33.7094 38.4593 33.705 38.3625L33.6375 36.4191L34.0116 36.1125L35.8875 36.5625C35.9817 36.5851 36.0801 36.583 36.1732 36.5564C36.2663 36.5298 36.351 36.4796 36.4191 36.4106C36.4856 36.3423 36.5337 36.2582 36.5587 36.1662C36.5838 36.0742 36.5851 35.9773 36.5625 35.8847L36.1181 33.9919C36.2222 33.8681 36.3234 33.7472 36.4247 33.6178L38.3653 33.6853C38.4619 33.6894 38.558 33.6685 38.6442 33.6247C38.7304 33.5809 38.8039 33.5155 38.8575 33.435C38.9134 33.3532 38.9468 33.2582 38.9542 33.1594C38.9616 33.0606 38.9428 32.9617 38.8997 32.8725L38.0953 31.1091C38.1712 30.9684 38.25 30.8278 38.3259 30.6787L40.2384 30.3666C40.3345 30.3522 40.4252 30.3132 40.5017 30.2533C40.5782 30.1935 40.638 30.1149 40.6751 30.0251C40.7122 29.9353 40.7254 29.8375 40.7134 29.7411C40.7015 29.6447 40.6648 29.553 40.6069 29.475L39.4819 27.9028C39.5297 27.7481 39.5775 27.5906 39.6225 27.4331L41.4366 26.7553C41.5274 26.7217 41.608 26.6652 41.6705 26.5913C41.7331 26.5174 41.7756 26.4285 41.7937 26.3334C41.8112 26.2404 41.8049 26.1444 41.7754 26.0544C41.7459 25.9645 41.6942 25.8834 41.625 25.8187L40.2187 24.4941C40.2356 24.3337 40.2497 24.1734 40.2666 24.0131L41.9062 22.9922C41.9902 22.9424 42.0597 22.8716 42.108 22.7868C42.1563 22.702 42.1817 22.606 42.1817 22.5084C42.1817 22.4108 42.1563 22.3149 42.108 22.2301C42.0597 22.1453 41.9902 22.0745 41.9062 22.0247ZM30.8475 35.7187C30.621 35.6706 30.4138 35.5564 30.2522 35.3905C30.0907 35.2245 29.982 35.0144 29.9399 34.7866C29.8979 34.5589 29.9244 34.3238 30.0161 34.1111C30.1077 33.8985 30.2604 33.7178 30.4549 33.592C30.6493 33.4661 30.8767 33.4009 31.1083 33.4044C31.3399 33.4079 31.5652 33.4801 31.7557 33.6117C31.9462 33.7434 32.0934 33.9287 32.1785 34.144C32.2637 34.3594 32.283 34.5952 32.2341 34.8216C32.168 35.1237 31.9852 35.3875 31.7255 35.5556C31.4658 35.7236 31.1502 35.7823 30.8475 35.7187ZM30.285 31.9247C30.1483 31.8954 30.0072 31.8933 29.8698 31.9186C29.7323 31.9439 29.6012 31.996 29.4839 32.072C29.3666 32.148 29.2654 32.2464 29.1862 32.3616C29.107 32.4768 29.0512 32.6064 29.0222 32.7431L28.4344 35.4797C26.5493 36.3332 24.5028 36.7712 22.4335 36.7639C20.3643 36.7566 18.3208 36.3042 16.4419 35.4375L15.8541 32.7009C15.7947 32.4252 15.6284 32.1842 15.3917 32.0308C15.155 31.8774 14.8672 31.8241 14.5912 31.8825L12.1753 32.4C11.7268 31.938 11.3097 31.4466 10.9266 30.9291H22.6828C22.815 30.9291 22.905 30.9037 22.905 30.7828V26.6147C22.905 26.4937 22.815 26.4684 22.6828 26.4684H19.2431V23.8331H22.9612C23.5136 23.8382 24.0462 24.0387 24.4648 24.3991C24.8834 24.7595 25.1608 25.2564 25.2478 25.8019C25.3941 26.3812 25.7203 28.2684 25.9425 28.8731C26.0886 29.3599 26.356 29.8016 26.7195 30.1568C27.0831 30.5119 27.5309 30.769 28.0209 30.9037H33.8794C33.9501 30.9033 34.0207 30.8967 34.0903 30.8841C33.6847 31.4363 33.2401 31.9589 32.76 32.4478L30.2878 31.9162L30.285 31.9247ZM14.0287 35.6625C13.8025 35.7113 13.5669 35.6919 13.3516 35.6068C13.1364 35.5216 12.9513 35.3746 12.8197 35.1842C12.688 34.9938 12.6158 34.7687 12.6122 34.5373C12.6085 34.3058 12.6736 34.0785 12.7991 33.8841C12.9247 33.6897 13.1051 33.5368 13.3175 33.445C13.5299 33.3531 13.7649 33.3263 13.9925 33.3679C14.2202 33.4095 14.4304 33.5178 14.5966 33.6789C14.7627 33.84 14.8773 34.0468 14.9259 34.2731C14.9594 34.4237 14.9627 34.5794 14.9356 34.7312C14.9085 34.883 14.8517 35.028 14.7682 35.1577C14.6848 35.2874 14.5765 35.3993 14.4496 35.4869C14.3226 35.5745 14.1796 35.6361 14.0287 35.6681V35.6625ZM9.56249 17.5866C9.65555 17.7977 9.68393 18.0317 9.64407 18.2589C9.6042 18.4862 9.49787 18.6965 9.33851 18.8634C9.17915 19.0303 8.97392 19.1462 8.74873 19.1964C8.52354 19.2467 8.2885 19.2291 8.07331 19.1458C7.85812 19.0626 7.67243 18.9174 7.5397 18.7287C7.40697 18.54 7.33316 18.3161 7.32759 18.0855C7.32201 17.8548 7.38493 17.6276 7.5084 17.4327C7.63186 17.2378 7.81032 17.0838 8.02124 16.9903C8.30474 16.8654 8.62621 16.858 8.91514 16.9698C9.20407 17.0816 9.43687 17.3034 9.56249 17.5866ZM8.20124 20.835L10.7184 19.71C10.9735 19.5934 11.1723 19.381 11.2718 19.1188C11.3713 18.8566 11.3634 18.5658 11.25 18.3094L10.7409 17.1366H12.7772V26.325H8.66531C8.29611 25.0449 8.10679 23.7197 8.10281 22.3875C8.10311 21.8708 8.13034 21.3545 8.18437 20.8406L8.20124 20.835ZM19.2459 19.9434V17.2378H24.1003C24.5141 17.2373 24.9156 17.3786 25.238 17.638C25.5603 17.8974 25.7842 18.2594 25.8722 18.6637C25.7485 19.1078 25.4596 19.4877 25.0648 19.7256C24.67 19.9636 24.1991 20.0415 23.7487 19.9434H19.2459ZM36.8859 22.3791C36.8859 22.7391 36.8728 23.0944 36.8466 23.445H35.3672C35.3365 23.4435 35.3058 23.4491 35.2776 23.4613C35.2493 23.4734 35.2242 23.4919 35.2041 23.5152C35.1841 23.5385 35.1696 23.5661 35.1618 23.5958C35.154 23.6256 35.153 23.6567 35.1591 23.6869V24.3675C35.2008 24.6147 35.1887 24.868 35.1235 25.1101C35.0583 25.3522 34.9416 25.5773 34.7814 25.7701C34.6211 25.9629 34.4212 26.1189 34.1951 26.2273C33.969 26.3356 33.7222 26.3939 33.4716 26.3981C33.1449 26.4585 32.8075 26.4166 32.5055 26.2782C32.2035 26.1398 31.9516 25.9116 31.7841 25.6247C31.7303 24.8301 31.4899 24.0595 31.0823 23.3753C30.6748 22.6911 30.1116 22.1127 29.4384 21.6872C30.2305 21.3041 30.9149 20.7301 31.43 20.0167C31.945 19.3033 32.2745 18.473 32.3887 17.6006C32.3597 16.8308 32.1386 16.0804 31.7457 15.4178C31.3527 14.7552 30.8003 14.2013 30.1387 13.8066C29.2119 13.2078 28.1464 12.8581 27.045 12.7912H11.7844C13.8926 10.4312 16.7213 8.83346 19.8309 8.24624L21.6309 10.125C21.8262 10.3286 22.0943 10.4465 22.3763 10.4528C22.6583 10.4591 22.9314 10.3534 23.1356 10.1587L25.1494 8.24062C27.2006 8.62623 29.1434 9.4533 30.8432 10.6645C32.5429 11.8757 33.959 13.4421 34.9931 15.255L33.6178 18.3656C33.5041 18.6242 33.4974 18.9172 33.5991 19.1807C33.7008 19.4442 33.9027 19.6568 34.1606 19.7719L36.8128 20.9531C36.8606 21.4228 36.8831 21.9009 36.8831 22.3819L36.8859 22.3791ZM21.6337 6.62906C21.801 6.47026 22.0116 6.36458 22.2388 6.32535C22.4661 6.28612 22.6999 6.31511 22.9107 6.40864C23.1215 6.50218 23.2999 6.65607 23.4233 6.85089C23.5468 7.04572 23.6097 7.27275 23.6042 7.50331C23.5987 7.73388 23.5251 7.95766 23.3925 8.14639C23.2599 8.33512 23.0744 8.48035 22.8594 8.56374C22.6444 8.64714 22.4095 8.66496 22.1843 8.61496C21.9592 8.56496 21.7539 8.44938 21.5944 8.2828C21.3828 8.05947 21.2679 7.76162 21.2747 7.45403C21.2816 7.14644 21.4096 6.854 21.6309 6.64031L21.6337 6.62906ZM35.3081 17.6316C35.4023 17.421 35.5567 17.2431 35.7519 17.1203C35.9471 16.9974 36.1743 16.9352 36.4049 16.9414C36.6354 16.9476 36.859 17.0219 37.0473 17.155C37.2357 17.2882 37.3803 17.4741 37.4631 17.6894C37.5458 17.9047 37.5629 18.1397 37.5122 18.3647C37.4615 18.5896 37.3453 18.7946 37.1783 18.9536C37.0112 19.1126 36.8008 19.2185 36.5736 19.2581C36.3463 19.2976 36.1125 19.2689 35.9016 19.1756C35.621 19.0494 35.4014 18.8179 35.2903 18.531C35.1793 18.2441 35.1857 17.925 35.3081 17.6428V17.6316Z" fill="white"/>
</svg>
