<svg width="45" height="45" viewBox="0 0 45 45" fill="none" xmlns="http://www.w3.org/2000/svg">
<path fill-rule="evenodd" clip-rule="evenodd" d="M4.14 4.14V40.86H40.86V4.14H4.14ZM32.0418 21.9753V21.9758C32.3939 21.9769 32.7941 21.995 33.0951 22.0277C34.3208 22.1603 35.2753 22.6891 36.0874 23.6851C36.4918 24.1813 36.6302 24.3984 36.6007 24.4913C36.5817 24.5512 36.3042 24.7499 35.422 25.3355C34.5554 25.9108 34.2762 26.0831 34.2114 26.0831C34.1457 26.0831 34.0088 25.9422 33.8114 25.6716C33.4312 25.1506 33.043 24.9128 32.4429 24.8335C31.7976 24.748 31.2187 24.9514 30.9352 25.3635C30.6929 25.7155 30.6563 26.282 30.8489 26.6936C31.0721 27.1704 31.476 27.4339 33.0239 28.1127C34.8091 28.8955 35.7138 29.4313 36.3727 30.0962C37.0822 30.8123 37.4417 31.6391 37.5521 32.8085C37.606 33.3785 37.5402 34.0541 37.377 34.6034C36.977 35.9499 35.8975 36.9359 34.3152 37.3999C33.8779 37.5281 33.4709 37.6047 33.0683 37.6342C32.4538 37.6795 31.574 37.6545 31.0446 37.5774C29.705 37.3823 28.1928 36.6028 27.4388 35.7189C27.0686 35.2851 26.5961 34.5711 26.5961 34.4454C26.5961 34.3848 26.6261 34.3504 26.7452 34.2748C27.0981 34.0506 29.1206 32.8943 29.1599 32.8943C29.1836 32.8943 29.2892 33.0189 29.3945 33.171C29.6331 33.5155 30.2198 34.1076 30.5181 34.3052C30.7617 34.4665 31.0733 34.5961 31.4432 34.6896C31.655 34.7424 31.7672 34.7519 32.2295 34.7519C32.7017 34.7517 32.7986 34.7437 33.0099 34.687C33.5688 34.5366 34.0051 34.2253 34.1899 33.8452C34.271 33.6809 34.2725 33.6604 34.2725 33.2619V32.8488L34.1732 32.6518C33.9326 32.1742 33.4142 31.8465 31.7752 31.1366C31.0223 30.8104 30.1002 30.3506 29.7402 30.1218C28.9186 29.5997 28.3492 29.0028 27.9756 28.2722C27.6039 27.5457 27.5484 27.2752 27.5475 26.1827C27.5466 25.3275 27.5452 25.338 27.7222 24.7921C27.8829 24.2968 28.2118 23.7434 28.5748 23.3576C29.2994 22.5874 30.358 22.0924 31.4913 21.9939C31.6363 21.9802 31.8305 21.9748 32.0417 21.9755L32.0418 21.9753ZM22.2894 22.1442H22.2898C24.4725 22.1453 25.7238 22.1529 25.7439 22.1655C25.7817 22.1889 25.7864 22.3789 25.7864 23.5913V24.99L23.6083 24.9979L21.4302 25.0058V31.19C21.4302 34.5913 21.4233 37.3944 21.4139 37.4191C21.3985 37.4608 21.2309 37.464 19.8138 37.464H18.2308L18.2145 37.4C18.2039 37.3649 18.1962 34.5617 18.196 31.1708L18.1955 25.0054L16.0174 24.9977L13.8393 24.9898V23.6077C13.8393 22.5115 13.8469 22.2179 13.8761 22.1887C13.906 22.1578 15.0176 22.1499 19.8072 22.1451C20.7307 22.1442 21.5618 22.1438 22.2894 22.1442Z" fill="white"/>
</svg>
